<?xml version="1.0" encoding="UTF-8"?>
<svg id="pictograma04_contactos" xmlns="http://www.w3.org/2000/svg" xmlns:xlink="http://www.w3.org/1999/xlink" viewBox="0 0 100 100">
  <defs>
    <style>
      .cls-1 {
        opacity: .76;
      }

      .cls-2 {
        fill: #fff;
      }

      .cls-3 {
        filter: url(#outer-glow-4);
        stroke: aqua;
        stroke-miterlimit: 10;
        stroke-width: 3px;
      }
    </style>
    <filter id="outer-glow-4" x="3" y="3" width="94" height="94" filterUnits="userSpaceOnUse">
      <feOffset dx="0" dy="0"/>
      <feGaussianBlur result="blur" stdDeviation="1"/>
      <feFlood flood-color="#06efe8" flood-opacity=".53"/>
      <feComposite in2="blur" operator="in"/>
      <feComposite in="SourceGraphic"/>
    </filter>
  </defs>
  <circle class="cls-3" cx="50" cy="50" r="43.69"/>
  <g class="cls-1">
    <path class="cls-2" d="M50,8.25c23.02,0,41.75,18.73,41.75,41.75s-18.73,41.75-41.75,41.75S8.25,73.02,8.25,50,26.98,8.25,50,8.25M50,7.5C26.53,7.5,7.5,26.53,7.5,50s19.03,42.5,42.5,42.5,42.5-19.03,42.5-42.5S73.47,7.5,50,7.5h0Z"/>
  </g>
  <path class="cls-2" d="M66.12,24.67h0c5.87,0,10.61,3.12,11.53,7.59,1.12,5.46-3.76,11.09-10.88,12.55-1.13.23-2.28.35-3.41.35-5.87,0-10.61-3.12-11.53-7.59-.53-2.6.27-5.32,2.27-7.68,2.06-2.42,5.11-4.15,8.61-4.87,1.13-.23,2.28-.35,3.41-.35M66.12,23.67c-1.18,0-2.39.12-3.61.37-7.67,1.58-12.89,7.73-11.65,13.73,1.04,5.05,6.3,8.39,12.51,8.39,1.18,0,2.39-.12,3.61-.37,7.67-1.58,12.89-7.73,11.65-13.73-1.04-5.05-6.3-8.39-12.51-8.39h0Z"/>
  <path class="cls-2" d="M55.2,20.32c3.14,0,5.97.46,8.48,1.39-4.1.53-7.8,2.2-10.52,4.76-.72.68-2.39,2.26-3.48,4.88-.41.99-.7,2.04-.85,3.1-1.28-.37-2.71-.64-4.17-.64-1.89,0-3.59.45-5.05,1.33-2.42,1.46-3.38,3.74-4.72,6.9-2.17,5.15-4.23,10.01-1.6,14.1,1.42,2.21,3.36,2.82,5.42,3.46,1.01.31,2.15.67,3.54,1.29.99.44,1.96.95,2.88,1.51-1.2.81-2.13,1.86-3.05,2.89-.82.93-2.07,2.33-2.87,4.46-.44,1.17-.59,2.56-.88,5.33-.23,2.22-.31,2.89-.24,3.52,0,0,0,.01,0,.02-1.87-.74-3.77-1.78-5.51-3.22-7.01-5.78-7.38-14.65-7.56-18.91-.22-5.21.9-9.05,2.32-13.91,2.2-7.54,3.65-12.52,8.26-16.39,4.59-3.86,9.96-4.74,13.17-5.27,1.26-.21,3.6-.59,6.42-.59M55.2,17.32c-3.07,0-5.59.41-6.91.63-3.46.56-9.39,1.53-14.62,5.93-5.3,4.46-6.9,9.94-9.21,17.85-1.45,4.96-2.67,9.17-2.43,14.87.19,4.59.61,14.46,8.65,21.1,4.78,3.95,10.39,5.2,14.24,5.59-3.19-2.08-3.73-4.06-3.83-5.03-.03-.3.06-1.16.24-2.87.27-2.52.4-3.79.7-4.59.6-1.61,1.54-2.66,2.3-3.52,1.39-1.56,2.43-2.73,4.2-3.15.43-.1.86-.14,1.26-.14,1.18,0,2.19.36,2.85.66-1.89-1.99-4.86-4.6-9.17-6.51-4.21-1.87-6.33-1.58-7.65-3.63-1.77-2.76-.12-6.68,1.84-11.31,1.28-3.03,1.95-4.56,3.5-5.5,1.08-.65,2.29-.9,3.5-.9,3.53,0,7.06,2.08,7.41,2.3-.29-1.05-.84-3.67.38-6.6.83-1.99,2.1-3.22,2.77-3.85,3.71-3.51,8.5-3.96,9.74-4.06.47-.04.93-.06,1.37-.06,4.21,0,7.28,1.58,8.46,2.26-.96-1.43-2.51-3.4-4.93-5.16-4.75-3.47-10.27-4.31-14.66-4.31h0Z"/>
  <path class="cls-2" d="M49.62,64.42h0c3.18,0,5.32,2.99,5.41,3.12,2.02,2.87,1.7,7.15-.79,10.42-1.75,2.29-5.03,4.61-7.92,4.61-.46,0-.9-.06-1.32-.18-3.65-1.03-4-6.55-3.09-9.96.07-.28,1.88-6.86,6.57-7.88.38-.08.76-.12,1.14-.12M49.62,63.42c-.43,0-.88.05-1.35.15-5.23,1.14-7.2,8.14-7.33,8.6-1.02,3.82-.62,9.94,3.78,11.18.52.15,1.05.21,1.59.21,3.26,0,6.78-2.46,8.72-5,2.79-3.65,3.04-8.45.82-11.6-.21-.29-2.58-3.54-6.23-3.54h0Z"/>
  <path class="cls-2" d="M45.37,72.29c-.31,0-.68.79-.85,1.17-.18.38-.56,1.2-.3,1.38.04.03.08.04.13.04.23,0,.58-.23.66-.28.07-.05.42-.28.62-.73.06-.13.16-.4.13-.74-.02-.24-.11-.8-.36-.84,0,0-.02,0-.02,0h0Z"/>
  <path class="cls-2" d="M47.77,66.2c-.31,0-.68.79-.85,1.17-.18.38-.56,1.2-.3,1.38.04.03.08.04.13.04.23,0,.58-.23.66-.28.07-.05.42-.28.62-.73.06-.13.16-.4.13-.74-.02-.24-.11-.8-.36-.84,0,0-.02,0-.02,0h0Z"/>
  <path class="cls-2" d="M51.94,74.79c-.31,0-.68.79-.85,1.17-.18.38-.56,1.2-.3,1.38.04.03.08.04.13.04.23,0,.58-.23.66-.28.07-.05.42-.28.62-.73.06-.13.16-.4.13-.74-.02-.24-.11-.8-.36-.84,0,0-.02,0-.02,0h0Z"/>
  <path class="cls-2" d="M51.33,70.44c-.31,0-.68.79-.85,1.17-.18.38-.56,1.2-.3,1.38.04.03.08.04.13.04.23,0,.58-.23.66-.28.07-.05.42-.28.62-.73.06-.13.16-.4.13-.74-.02-.24-.11-.8-.36-.84,0,0-.02,0-.02,0h0Z"/>
  <path class="cls-2" d="M47.78,74.45c-.31,0-.68.79-.85,1.17-.18.38-.56,1.2-.3,1.38.04.03.08.04.13.04.23,0,.58-.23.66-.28.07-.05.42-.28.62-.73.06-.13.16-.4.13-.74-.02-.24-.11-.8-.36-.84,0,0-.02,0-.02,0h0Z"/>
  <path class="cls-2" d="M48.52,69.83c-.31,0-.68.79-.85,1.17-.18.38-.56,1.2-.3,1.38.04.03.08.04.13.04.23,0,.58-.23.66-.28.07-.05.42-.28.62-.73.06-.13.16-.4.13-.74-.02-.24-.11-.8-.36-.84,0,0-.02,0-.02,0h0Z"/>
  <path class="cls-2" d="M52.14,66.21c-.31,0-.68.79-.85,1.17-.18.38-.56,1.2-.3,1.38.04.03.08.04.13.04.23,0,.58-.23.66-.28.07-.05.42-.28.62-.73.06-.13.16-.4.13-.74-.02-.24-.11-.8-.36-.84,0,0-.02,0-.02,0h0Z"/>
  <path class="cls-2" d="M48.3,78.33c-.31,0-.68.79-.85,1.17-.18.38-.56,1.2-.3,1.38.04.03.08.04.13.04.23,0,.58-.23.66-.28.07-.05.42-.28.62-.73.06-.13.16-.4.13-.74-.02-.24-.11-.8-.36-.84,0,0-.02,0-.02,0h0Z"/>
  <path class="cls-2" d="M54.53,70.98c-.31,0-.68.79-.85,1.17-.18.38-.56,1.2-.3,1.38.04.03.08.04.13.04.23,0,.58-.23.66-.28.07-.05.42-.28.62-.73.06-.13.16-.4.13-.74-.02-.24-.11-.8-.36-.84,0,0-.02,0-.02,0h0Z"/>
  <path class="cls-2" d="M44.33,76.76c-.31,0-.68.79-.85,1.17-.18.38-.56,1.2-.3,1.38.04.03.08.04.13.04.23,0,.58-.23.66-.28.07-.05.42-.28.62-.73.06-.13.16-.4.13-.74-.02-.24-.11-.8-.36-.84,0,0-.02,0-.02,0h0Z"/>
  <g>
    <path class="cls-2" d="M59.3,29.43c-.31,0-.58-.2-.64-.47-.07-.33.18-.66.55-.74.05,0,.1-.02.16-.02.31,0,.58.2.64.47.07.33-.18.66-.55.74-.05,0-.1.02-.16.02Z"/>
    <path class="cls-2" d="M59.37,28.71c.08,0,.14.04.15.07,0,.04-.05.12-.16.14-.02,0-.04,0-.05,0-.08,0-.14-.04-.15-.07,0-.04.05-.12.16-.14.02,0,.04,0,.06,0M59.37,27.71c-.08,0-.17,0-.26.03-.64.13-1.06.73-.94,1.33.11.52.59.87,1.13.87.08,0,.17,0,.26-.03.64-.13,1.06-.73.94-1.33-.11-.52-.59-.87-1.13-.87h0Z"/>
  </g>
  <g>
    <path class="cls-2" d="M70.11,29.47c-.31,0-.58-.2-.64-.47-.03-.15,0-.31.1-.45.1-.15.26-.25.45-.29.05-.01.1-.02.16-.02.31,0,.58.2.64.47.03.15,0,.31-.1.45-.1.15-.26.25-.45.29-.05.01-.1.02-.16.02Z"/>
    <path class="cls-2" d="M70.17,28.75c.08,0,.14.04.15.07,0,.04-.05.12-.16.14-.02,0-.04,0-.05,0-.08,0-.14-.04-.15-.07,0-.04.05-.12.16-.14.02,0,.04,0,.06,0M70.17,27.75c-.08,0-.17,0-.26.03-.64.13-1.06.73-.94,1.33.11.52.59.87,1.13.87.08,0,.17,0,.26-.03.64-.13,1.06-.73.94-1.33-.11-.52-.59-.87-1.13-.87h0Z"/>
  </g>
  <g>
    <path class="cls-2" d="M69.92,34.46c-.31,0-.58-.2-.64-.47-.03-.15,0-.31.1-.45.1-.15.26-.25.45-.29.05-.01.1-.02.16-.02.31,0,.58.2.64.47.07.33-.18.66-.55.73-.05.01-.1.02-.16.02Z"/>
    <path class="cls-2" d="M69.99,33.73c.08,0,.14.04.15.07,0,.04-.05.12-.16.14-.02,0-.04,0-.05,0-.08,0-.14-.04-.15-.07,0-.04.05-.12.16-.14.02,0,.04,0,.05,0M69.99,32.73c-.08,0-.17,0-.26.03-.64.13-1.06.73-.94,1.33.11.52.59.87,1.13.87.08,0,.17,0,.26-.03.64-.13,1.06-.73.94-1.33-.11-.52-.59-.87-1.13-.87h0Z"/>
  </g>
  <g>
    <path class="cls-2" d="M64.23,32.42c-.31,0-.58-.2-.64-.47-.03-.15,0-.31.1-.45.1-.15.26-.25.45-.29.05-.01.1-.02.16-.02.31,0,.58.2.64.47.03.15,0,.31-.1.45-.1.15-.26.25-.45.29-.05.01-.1.02-.16.02Z"/>
    <path class="cls-2" d="M64.3,31.7c.08,0,.14.04.15.07,0,.04-.05.12-.16.14-.02,0-.04,0-.05,0-.08,0-.14-.04-.15-.07,0-.04.05-.12.16-.14.02,0,.04,0,.06,0M64.3,30.7c-.08,0-.17,0-.26.03-.64.13-1.06.73-.94,1.33.11.52.59.87,1.13.87.08,0,.17,0,.26-.03.64-.13,1.06-.73.94-1.33-.11-.52-.59-.87-1.13-.87h0Z"/>
  </g>
  <g>
    <path class="cls-2" d="M64,27.33c-.31,0-.58-.2-.64-.47-.03-.15,0-.31.1-.45.1-.15.26-.25.45-.29.05-.01.1-.02.16-.02.31,0,.58.2.64.47.03.15,0,.31-.1.45-.1.15-.26.25-.45.29-.05.01-.1.02-.16.02Z"/>
    <path class="cls-2" d="M64.07,26.61c.08,0,.14.04.15.07,0,.02,0,.04-.02.06-.01.02-.06.07-.14.09-.02,0-.04,0-.05,0-.08,0-.14-.04-.15-.07,0-.02,0-.04.02-.06.01-.02.06-.07.14-.09.02,0,.04,0,.05,0M64.07,25.61c-.08,0-.17,0-.26.03-.64.13-1.06.73-.94,1.33.11.52.59.87,1.13.87.08,0,.17,0,.26-.03.64-.13,1.06-.73.94-1.33-.11-.52-.59-.87-1.13-.87h0Z"/>
  </g>
  <g>
    <path class="cls-2" d="M62.11,37.2c-.31,0-.58-.2-.64-.47-.03-.15,0-.31.1-.45.1-.15.26-.25.45-.29.05-.01.1-.02.16-.02.31,0,.58.2.64.47.03.15,0,.31-.1.45-.1.15-.26.25-.45.29-.05.01-.1.02-.16.02Z"/>
    <path class="cls-2" d="M62.18,36.47c.08,0,.14.04.15.07,0,.04-.05.12-.16.14-.02,0-.04,0-.05,0-.08,0-.14-.04-.15-.07,0-.04.05-.12.16-.14.02,0,.04,0,.06,0M62.18,35.47c-.08,0-.17,0-.26.03-.64.13-1.06.73-.94,1.33.11.52.59.87,1.13.87.08,0,.17,0,.26-.03.64-.13,1.06-.73.94-1.33-.11-.52-.59-.87-1.13-.87h0Z"/>
  </g>
  <g>
    <path class="cls-2" d="M63.78,42c-.31,0-.58-.2-.64-.47-.03-.15,0-.31.1-.45.1-.15.26-.25.45-.29.05-.01.1-.02.16-.02.31,0,.58.2.64.47.03.15,0,.31-.1.45-.1.15-.26.25-.45.29-.05.01-.1.02-.16.02Z"/>
    <path class="cls-2" d="M63.85,41.28c.08,0,.14.04.15.07,0,.04-.05.12-.16.14-.02,0-.04,0-.05,0-.08,0-.14-.04-.15-.07,0-.04.05-.12.16-.14.02,0,.04,0,.06,0M63.85,40.28c-.08,0-.17,0-.26.03-.64.13-1.06.73-.94,1.33.11.52.59.87,1.13.87.08,0,.17,0,.26-.03.64-.13,1.06-.73.94-1.33-.11-.52-.59-.87-1.13-.87h0Z"/>
  </g>
  <g>
    <path class="cls-2" d="M56.54,39.92c-.31,0-.58-.2-.64-.47-.03-.15,0-.31.1-.45.1-.15.26-.25.45-.29.05-.01.1-.02.16-.02.31,0,.58.2.64.47.03.15,0,.31-.1.45-.1.15-.26.25-.45.29-.05.01-.1.02-.16.02Z"/>
    <path class="cls-2" d="M56.6,39.19c.08,0,.14.04.15.07,0,.02,0,.04-.02.06-.01.02-.06.07-.14.09-.02,0-.04,0-.05,0-.08,0-.14-.04-.15-.07,0-.02,0-.04.02-.06.01-.02.06-.07.14-.09.02,0,.04,0,.05,0M56.6,38.19c-.08,0-.17,0-.26.03-.64.13-1.06.73-.94,1.33.11.52.59.87,1.13.87.08,0,.17,0,.26-.03.64-.13,1.06-.73.94-1.33-.11-.52-.59-.87-1.13-.87h0Z"/>
  </g>
  <g>
    <path class="cls-2" d="M75.25,32.9c-.19,0-.38-.08-.5-.21-.11-.11-.16-.26-.15-.41,0-.17.09-.32.23-.44.13-.11.31-.17.49-.17.19,0,.38.08.5.21.11.11.16.26.15.41,0,.17-.09.32-.23.44-.13.11-.31.17-.48.17Z"/>
    <path class="cls-2" d="M75.31,32.18c.06,0,.11.02.15.08,0,.01,0,.04-.05.08-.06.05-.13.06-.16.06-.06,0-.11-.02-.15-.08,0-.01,0-.04.05-.08.06-.05.13-.06.16-.06M75.31,31.18c-.29,0-.57.1-.81.29-.49.41-.55,1.12-.12,1.57.23.24.54.36.86.36.29,0,.57-.1.81-.29.49-.41.55-1.12.12-1.57-.23-.24-.54-.36-.86-.36h0Z"/>
  </g>
  <g>
    <path class="cls-2" d="M74.61,37.33c-.31,0-.58-.2-.64-.47-.07-.33.18-.66.55-.73.05-.01.1-.02.16-.02.31,0,.58.2.64.47.07.33-.18.66-.55.73-.05.01-.1.02-.16.02Z"/>
    <path class="cls-2" d="M74.68,36.61c.08,0,.14.04.15.07,0,.02,0,.04-.02.06-.01.02-.06.07-.14.09-.02,0-.04,0-.05,0-.08,0-.14-.04-.15-.07,0-.04.05-.12.16-.14.02,0,.04,0,.06,0M74.68,35.61c-.08,0-.17,0-.26.03-.64.13-1.06.73-.94,1.33.11.52.59.87,1.13.87.08,0,.17,0,.26-.03.64-.13,1.06-.73.94-1.33-.11-.52-.59-.87-1.13-.87h0Z"/>
  </g>
  <g>
    <path class="cls-2" d="M69.86,40.05c-.31,0-.58-.2-.64-.47-.03-.15,0-.31.1-.45.1-.15.26-.25.45-.29.05-.01.1-.02.16-.02.31,0,.58.2.64.47.03.15,0,.31-.1.45-.1.15-.26.25-.45.29-.05.01-.1.02-.16.02Z"/>
    <path class="cls-2" d="M69.93,39.33c.08,0,.14.04.15.07,0,.04-.05.12-.16.14-.02,0-.04,0-.05,0-.08,0-.14-.04-.15-.07,0-.04.05-.12.16-.14.02,0,.04,0,.06,0M69.93,38.33c-.08,0-.17,0-.26.03-.64.13-1.06.73-.94,1.33.11.52.59.87,1.13.87.08,0,.17,0,.26-.03.64-.13,1.06-.73.94-1.33-.11-.52-.59-.87-1.13-.87h0Z"/>
  </g>
  <g>
    <path class="cls-2" d="M56.72,34.91c-.31,0-.58-.2-.64-.47-.03-.15,0-.31.1-.45.1-.15.26-.25.45-.29.05-.01.1-.02.16-.02.31,0,.58.2.64.47.03.15,0,.31-.1.45-.1.15-.26.25-.45.29-.05.01-.1.02-.16.02Z"/>
    <path class="cls-2" d="M56.78,34.19c.08,0,.14.04.15.07,0,.04-.05.12-.16.14-.02,0-.04,0-.05,0-.08,0-.14-.04-.15-.07,0-.02,0-.04.02-.06.01-.02.06-.07.14-.09.02,0,.04,0,.06,0M56.78,33.19c-.08,0-.17,0-.26.03-.64.13-1.06.73-.94,1.33.11.52.59.87,1.13.87.08,0,.17,0,.26-.03.64-.13,1.06-.73.94-1.33-.11-.52-.59-.87-1.13-.87h0Z"/>
  </g>
</svg>