<?xml version="1.0" encoding="UTF-8"?>
<svg id="pictograma05_locacion" xmlns="http://www.w3.org/2000/svg" xmlns:xlink="http://www.w3.org/1999/xlink" viewBox="0 0 100 100">
  <defs>
    <style>
      .cls-1 {
        opacity: .76;
      }

      .cls-2 {
        fill: #fff;
      }

      .cls-3 {
        fill: none;
        stroke: #fff;
        stroke-width: 4px;
      }

      .cls-3, .cls-4 {
        stroke-miterlimit: 10;
      }

      .cls-4 {
        filter: url(#outer-glow-5);
        stroke: aqua;
        stroke-width: 3px;
      }
    </style>
    <filter id="outer-glow-5" x="3" y="3" width="94" height="94" filterUnits="userSpaceOnUse">
      <feOffset dx="0" dy="0"/>
      <feGaussianBlur result="blur" stdDeviation="1"/>
      <feFlood flood-color="#06efe8" flood-opacity=".53"/>
      <feComposite in2="blur" operator="in"/>
      <feComposite in="SourceGraphic"/>
    </filter>
  </defs>
  <circle class="cls-4" cx="50" cy="50" r="43.69"/>
  <g class="cls-1">
    <path class="cls-2" d="M50,8.25c23.02,0,41.75,18.73,41.75,41.75s-18.73,41.75-41.75,41.75S8.25,73.02,8.25,50,26.98,8.25,50,8.25M50,7.5C26.53,7.5,7.5,26.53,7.5,50s19.03,42.5,42.5,42.5,42.5-19.03,42.5-42.5S73.47,7.5,50,7.5h0Z"/>
  </g>
  <path class="cls-2" d="M50,23.47c14.63,0,26.53,11.9,26.53,26.53s-11.9,26.53-26.53,26.53-26.53-11.9-26.53-26.53,11.9-26.53,26.53-26.53M50,20.47c-16.31,0-29.53,13.22-29.53,29.53s13.22,29.53,29.53,29.53,29.53-13.22,29.53-29.53-13.22-29.53-29.53-29.53h0Z"/>
  <path class="cls-3" d="M24.44,44.57c.45.25,2.25-4.4,5.43-4.56,2.44-.12,4.32,2.45,4.42,2.6.45.64.96,1.62,1.27,5.19.45,5.28-.35,6.94.74,7.73,1.11.81,2.32-.67,6.03-.48.91.05,3.72.19,4.13,1.43.36,1.11-1.54,1.97-1.27,3.28.29,1.4,2.62,1.09,4.34,3.07,1.27,1.46,1.45,3.29,1.59,4.66.28,2.84-.71,3.93,0,6.14.39,1.23,1.09,2.1,1.57,2.61.93-.11,14.99-2.07,21.11-14.88,4.45-9.32,2.78-20.34-3.62-27.88-7.39-8.71-18.01-9.18-20.16-9.23-1.23-.03-12.92-.09-20.35,8.34-4.55,5.16-5.87,11.66-5.23,12.01Z"/>
  <path class="cls-2" d="M57.89,38.09h0c0,.29,0,.58,0,.87,0,5.95,0,11.91,0,17.86h-1.75l-.24-12.17-10.55-3.18,10.33-3.28c-.02-.1-.04-.21-.03-.32.03-.49.52-1.08,1.19-1.04.62.04,1.11.61,1.05,1.27Z"/>
</svg>