<?xml version="1.0" encoding="UTF-8"?>
<svg id="pictograma01_carta" xmlns="http://www.w3.org/2000/svg" xmlns:xlink="http://www.w3.org/1999/xlink" viewBox="0 0 100 100">
  <defs>
    <style>
      .cls-1 {
        opacity: .76;
      }

      .cls-2, .cls-3 {
        fill: #fff;
      }

      .cls-4 {
        fill: none;
      }

      .cls-4, .cls-3 {
        stroke: #fff;
      }

      .cls-4, .cls-3, .cls-5 {
        stroke-miterlimit: 10;
      }

      .cls-3 {
        stroke-width: .25px;
      }

      .cls-5 {
        filter: url(#outer-glow-1);
        stroke: aqua;
        stroke-width: 3px;
      }
    </style>
    <filter id="outer-glow-1" x="3" y="1" width="94" height="94" filterUnits="userSpaceOnUse">
      <feOffset dx="0" dy="0"/>
      <feGaussianBlur result="blur" stdDeviation="1"/>
      <feFlood flood-color="#06efe8" flood-opacity=".53"/>
      <feComposite in2="blur" operator="in"/>
      <feComposite in="SourceGraphic"/>
    </filter>
  </defs>
  <circle class="cls-5" cx="50" cy="48.18" r="43.69"/>
  <g class="cls-1">
    <path class="cls-2" d="M50,6.43c23.02,0,41.75,18.73,41.75,41.75s-18.73,41.75-41.75,41.75S8.25,71.2,8.25,48.18,26.98,6.43,50,6.43M50,5.68C26.53,5.68,7.5,24.71,7.5,48.18s19.03,42.5,42.5,42.5,42.5-19.03,42.5-42.5S73.47,5.68,50,5.68h0Z"/>
  </g>
  <path class="cls-2" d="M22.4,32.03c2.67,1.09,5.43,1.92,8.24,2.49,2.97.6,6.01.9,9.04.9,2.81,0,5.64-.26,8.43-.77l.08,18.51.08,17.86c-2.5-1.07-5.09-1.86-7.75-2.36-2.26-.43-4.58-.64-6.88-.64-.56,0-1.13.01-1.69.04l-5.11-19.27-4.44-16.75M19.38,28.43c3.69,13.91,7.38,27.82,11.07,41.72.95-.09,2.02-.15,3.2-.15,1.92,0,4.12.16,6.51.61,4.33.82,7.77,2.31,10.14,3.58-.06-14-.13-28.01-.19-42.01-2.58.61-6.16,1.23-10.42,1.23-2.65,0-5.56-.24-8.65-.86-4.81-.97-8.73-2.6-11.66-4.12h0Z"/>
  <path class="cls-2" d="M75.94,31.94l-5.59,36.39c-1.51-.21-3.04-.32-4.56-.32-1.43,0-2.88.1-4.3.28-3.19.42-6.28,1.3-9.2,2.63l-.16-36.25c2.49.48,5.02.72,7.55.72.66,0,1.33-.02,1.99-.05,4.87-.24,9.74-1.41,14.28-3.41M78.5,28.43c-3.23,1.81-9.13,4.53-16.94,4.93-.64.03-1.27.05-1.89.05-3.84,0-7.1-.59-9.56-1.22.06,14,.13,28.01.19,42.01,2.32-1.34,6.25-3.22,11.45-3.91,1.43-.19,2.78-.27,4.04-.27,2.5,0,4.62.31,6.22.63,2.16-14.07,4.32-28.15,6.48-42.22h0Z"/>
  <path class="cls-4" d="M27.22,41.8c1.73-1.47,2.77-1.55,3.41-1.34,1.17.39,1.19,1.83,2.48,2.17,1.14.3,1.56-.72,2.89-.53,1.56.23,1.83,1.75,2.99,1.66,1.06-.09,1.24-1.41,2.37-1.66.68-.15,1.7.08,3.2,1.67"/>
  <path class="cls-4" d="M28.82,49.09c1.73-1.25,2.77-1.32,3.41-1.14,1.17.33,1.19,1.55,2.48,1.84,1.14.26,1.56-.61,2.89-.45,1.56.2,1.83,1.49,2.99,1.41,1.19-.08,2.37-1.41,2.37-1.41h0"/>
  <path class="cls-4" d="M30.42,57.3c1.73-1.25,2.77-1.32,3.41-1.14,1.17.33,1.19,1.55,2.48,1.84,1.14.26,1.56-.61,2.89-.45,1.56.2,1.83,1.49,2.99,1.41,1.19-.08,2.37-1.41,2.37-1.41h0"/>
  <path class="cls-4" d="M54.97,50.19c1.24,1.49,2.13,1.75,2.74,1.66.96-.14,1.04-1.1,2.11-1.22.46-.05,1.3.28,2.99.94.64.25.65.27.78.28,1.25.12,1.82-1.36,2.89-1.56.66-.13,1.65.21,3.1,2.08"/>
  <path class="cls-4" d="M54.66,45.25c1.13-.63,2.72-2.58,4.23-2.06,1.37.48,1.69,1.55,2.79,1.55,1.47,0,1.85-1.93,3.41-2.37.9-.25,2.4-.06,4.85,2.37"/>
  <path class="cls-4" d="M56.81,58.29h0c1.15-1.01,2.12-1.14,2.64-1.19.57-.05,1.63.27,3.75.91.81.24.81.26.98.27,1.78.13,3.62-1.52,3.62-1.52h0"/>
  <ellipse class="cls-3" cx="27.28" cy="41.75" rx=".39" ry=".38"/>
  <ellipse class="cls-3" cx="44.55" cy="43.77" rx=".39" ry=".38"/>
  <ellipse class="cls-3" cx="28.82" cy="49.07" rx=".39" ry=".38"/>
  <ellipse class="cls-3" cx="42.96" cy="49.32" rx=".39" ry=".38"/>
  <ellipse class="cls-3" cx="44.69" cy="57.53" rx=".39" ry=".38"/>
  <circle class="cls-3" cx="30.42" cy="57.3" r=".39"/>
  <ellipse class="cls-3" cx="54.91" cy="50.11" rx=".39" ry=".38" transform="translate(-19.22 44.46) rotate(-38.03)"/>
  <path class="cls-3" d="M69.94,52.37c0,.21-.18.38-.39.38s-.38-.18-.39-.38c0-.23.2-.43.43-.41.2.02.36.2.35.41Z"/>
  <ellipse class="cls-3" cx="67.79" cy="56.76" rx=".39" ry=".38"/>
  <ellipse class="cls-3" cx="56.81" cy="58.29" rx=".39" ry=".38"/>
  <ellipse class="cls-3" cx="69.94" cy="44.73" rx=".39" ry=".38"/>
  <ellipse class="cls-3" cx="54.66" cy="45.25" rx=".39" ry=".38"/>
</svg>