<?xml version="1.0" encoding="UTF-8"?>
<svg id="pictograma03_reservas" xmlns="http://www.w3.org/2000/svg" xmlns:xlink="http://www.w3.org/1999/xlink" viewBox="0 0 100 100">
  <defs>
    <style>
      .cls-1 {
        opacity: .76;
      }

      .cls-2 {
        fill: #fff;
      }

      .cls-3, .cls-4, .cls-5, .cls-6, .cls-7, .cls-8 {
        stroke-miterlimit: 10;
      }

      .cls-3, .cls-4, .cls-6, .cls-7 {
        fill: none;
      }

      .cls-3, .cls-4, .cls-6, .cls-7, .cls-8 {
        stroke: #fff;
      }

      .cls-4 {
        stroke-width: .5px;
      }

      .cls-5 {
        filter: url(#outer-glow-3);
        stroke: aqua;
      }

      .cls-5, .cls-6, .cls-8 {
        stroke-width: 3px;
      }

      .cls-7 {
        stroke-width: 2px;
      }
    </style>
    <filter id="outer-glow-3" x="3" y="3" width="94" height="94" filterUnits="userSpaceOnUse">
      <feOffset dx="0" dy="0"/>
      <feGaussianBlur result="blur" stdDeviation="1"/>
      <feFlood flood-color="#06efe8" flood-opacity=".53"/>
      <feComposite in2="blur" operator="in"/>
      <feComposite in="SourceGraphic"/>
    </filter>
  </defs>
  <circle class="cls-5" cx="50" cy="50" r="43.69"/>
  <g class="cls-1">
    <path class="cls-2" d="M50,8.25c23.02,0,41.75,18.73,41.75,41.75s-18.73,41.75-41.75,41.75S8.25,73.02,8.25,50,26.98,8.25,50,8.25M50,7.5C26.53,7.5,7.5,26.53,7.5,50s19.03,42.5,42.5,42.5,42.5-19.03,42.5-42.5S73.47,7.5,50,7.5h0Z"/>
  </g>
  <path class="cls-8" d="M23.35,81.12c7.56-7.8,8.89-13.91,8.66-18.11-.39-6.92-5.19-11.1-2.84-16.22,1.23-2.68,4.13-4.98,7.35-5.07,3.83-.11,7.65,2.92,9.09,7.61.72,1.4.55,2.97-.36,3.86-1.03,1-2.59.69-2.76.65-1.15-.25-1.65-1.02-2.84-2.11-.79-.72-1.97-1.66-3.64-2.55"/>
  <path class="cls-7" d="M38.49,41.95c5.71-6.45,16.14-13.03,21.84-19.47l17.21,15.11c-7.34,8.84-15.51,15.78-23.63,23.84-1.57-1.08-5.56-4.71-7.76-9.15-2.04-4.13-7.71-8.43-7.67-10.33Z"/>
  <path class="cls-6" d="M36.44,88.54c10.87-14.33,14.57-18.19,15.71-18.62.06-.02,2.25-.85,2.25-.85h0"/>
  <path class="cls-8" d="M55.4,62.52c-1.84-1.87-5.56-6.11-4.36-9.81.16-.5.69-2.13,1.81-2.28.78-.1,1.41.53,2.55,1.6,1.67,1.57,4.82,4.9,5.19,4.6.09-.07-.51.39-1.15-.72-1.36-.38-2.17-3.15-3.76-4.58-.88-.79-1.28-1.86-1.65-2.66,0-.38.09-.93.31-1.58.27-.82.78-1.7,1.71-1.94,1.25-.32,2.59.56,3.28,1.07,3.89,2.92,8.95,7.96,8.72,8.16-.15.12-2.12-1.84-8.79-9.29,0,0,.5-3.35,2.51-4.06,1.43-.5,2.32.32,3.38,1.01,2.73,1.77,3.62,3.76,5.58,7.03.9,1.51,2.31,3.75,4.25,6.45-.64,1.62-1.83,3.99-4.09,6.04-2.54,2.32-4.86,2.81-11.07,5.24-1.95.77-4.82,1.93-8.29,3.5"/>
  <path class="cls-3" d="M59.81,27.48c.85,1.61,1.82,2.62,2.55,3.24,1.18,1,1.84,1.09,2.99,2.26.95.96,1.11,1.52,1.91,2.65.69.97,1.81,2.29,3.63,3.63"/>
  <path class="cls-3" d="M56.96,32.29c.12.41.35.99.79,1.57.64.84,1.27,1.05,2.06,1.57,1.61,1.05,1.46,1.77,3.63,3.83.77.73,1.45,1.27,1.91,1.61"/>
  <path class="cls-3" d="M53.43,35.92c1.39.13,2.04.59,2.36,1.08.58.88-.05,1.67.59,2.55.54.75,1.24.51,2.26,1.37.63.53.98,1.14,1.18,1.57"/>
  <path class="cls-4" d="M54.73,46.23c-.94-.8-1.42-1.59-1.69-2.16-.55-1.16-.44-1.92-1.12-2.35-.69-.44-1.28.06-1.92-.3-.49-.27-.98-1.02-.89-3.14"/>
</svg>